<svg xmlns="http://www.w3.org/2000/svg" xmlns:xlink="http://www.w3.org/1999/xlink" id="Layer_1" x="0px" y="0px" viewBox="0 0 90.9 96.4" style="enable-background:new 0 0 90.9 96.4;" xml:space="preserve"><style type="text/css">	.st0{fill:#2D74BA;}	.st1{fill:#FFFFFF;}</style><path class="st0" d="M17,0h56.9c9.4,0,17,7.6,17,17v62.3c0,9.4-7.6,17-17,17H17c-9.4,0-17-7.6-17-17V17C0,7.6,7.6,0,17,0z"></path><path class="st1" d="M65.9,80v-8.6h1.3V80H65.9z M61.7,74.9c-0.4,0-0.8,0.1-1.1,0.4s-0.5,0.6-0.6,1.1h3.4c0-0.5-0.2-0.8-0.5-1.1 C62.5,75.1,62.1,74.9,61.7,74.9z M61.7,80.1c-0.6,0-1.1-0.1-1.6-0.4c-0.5-0.3-0.8-0.6-1.1-1.1c-0.3-0.5-0.4-1-0.4-1.6 s0.1-1.2,0.4-1.6c0.3-0.5,0.6-0.8,1.1-1.1c0.5-0.3,1-0.4,1.6-0.4s1.1,0.1,1.5,0.4c0.4,0.3,0.8,0.6,1,1c0.2,0.4,0.4,0.9,0.4,1.4 c0,0.1,0,0.2,0,0.3c0,0.1,0,0.2,0,0.3h-4.6c0,0.6,0.2,1,0.6,1.3c0.3,0.3,0.7,0.4,1.2,0.4c0.4,0,0.7-0.1,0.9-0.2 c0.2-0.2,0.4-0.4,0.5-0.7h1.3c-0.2,0.6-0.5,1-1,1.4C63,80,62.4,80.2,61.7,80.1L61.7,80.1L61.7,80.1z M54.5,80v-5.9h1.1l0.1,1.1 c0.2-0.4,0.5-0.7,0.9-0.9c0.4-0.2,0.8-0.3,1.4-0.3v1.3h-0.3c-0.3,0-0.7,0.1-1,0.2c-0.3,0.1-0.5,0.3-0.7,0.6 c-0.2,0.3-0.2,0.7-0.2,1.1V80L54.5,80L54.5,80z M50,79.1c0.3,0,0.6-0.1,0.9-0.2c0.2-0.2,0.4-0.4,0.5-0.7c0.1-0.3,0.2-0.6,0.2-0.9 h-1.4c-0.5,0-0.9,0.1-1.1,0.3c-0.2,0.2-0.3,0.4-0.3,0.7s0.1,0.5,0.3,0.7C49.4,79,49.7,79.1,50,79.1C50,79.1,50,79.1,50,79.1z  M49.8,80.1c-0.5,0-0.9-0.1-1.2-0.2s-0.6-0.4-0.7-0.7c-0.2-0.3-0.2-0.6-0.2-0.9c0-0.6,0.2-1,0.7-1.4s1.1-0.5,1.9-0.5h1.6v-0.1 c0-0.5-0.1-0.8-0.4-1s-0.6-0.3-1-0.3c-0.3,0-0.7,0.1-0.9,0.3C49.2,75.4,49,75.6,49,76h-1.3c0-0.4,0.2-0.8,0.4-1.1 c0.3-0.3,0.6-0.6,1-0.7c0.4-0.2,0.8-0.2,1.3-0.2c0.8,0,1.5,0.2,1.9,0.7c0.5,0.4,0.7,1,0.7,1.8V80h-1.1l-0.1-1 c-0.2,0.3-0.4,0.6-0.7,0.8C50.7,80.1,50.3,80.2,49.8,80.1C49.8,80.2,49.8,80.2,49.8,80.1z M43.2,79c0.5,0,1-0.2,1.3-0.6 c0.3-0.4,0.5-0.9,0.5-1.5c0-0.4-0.1-0.7-0.2-1s-0.4-0.5-0.7-0.7c-0.3-0.2-0.6-0.3-1-0.3c-0.5,0-1,0.2-1.3,0.6 c-0.3,0.4-0.5,0.9-0.5,1.4s0.2,1.1,0.5,1.5C42.2,78.9,42.7,79,43.2,79z M40.1,82.6v-8.6h1.1l0.1,0.9c0.2-0.3,0.5-0.5,0.8-0.7 c0.3-0.2,0.8-0.3,1.3-0.3c0.6,0,1.1,0.1,1.5,0.4c0.4,0.3,0.8,0.6,1,1.1c0.3,0.5,0.4,1,0.4,1.6s-0.1,1.1-0.4,1.6 c-0.2,0.5-0.6,0.8-1,1.1c-0.4,0.3-1,0.4-1.5,0.4c-0.5,0-0.9-0.1-1.2-0.3c-0.3-0.2-0.6-0.4-0.8-0.8v3.6L40.1,82.6L40.1,82.6 L40.1,82.6z M35.6,79c0.5,0,1-0.2,1.3-0.6c0.3-0.4,0.5-0.9,0.5-1.5c0-0.4-0.1-0.7-0.2-1s-0.4-0.5-0.7-0.7c-0.3-0.2-0.6-0.3-1-0.3 c-0.5,0-1,0.2-1.3,0.6c-0.3,0.4-0.5,0.9-0.5,1.4s0.2,1.1,0.5,1.5C34.6,78.9,35,79,35.6,79z M32.4,82.6v-8.6h1.1l0.1,0.9 c0.2-0.3,0.5-0.5,0.8-0.7c0.3-0.2,0.8-0.3,1.3-0.3c0.6,0,1.1,0.1,1.5,0.4c0.4,0.3,0.8,0.6,1,1.1c0.3,0.5,0.4,1,0.4,1.6 s-0.1,1.1-0.4,1.6c-0.2,0.5-0.6,0.8-1,1.1c-0.4,0.3-1,0.4-1.5,0.4c-0.5,0-0.9-0.1-1.2-0.3c-0.3-0.2-0.6-0.4-0.8-0.8v3.6L32.4,82.6 L32.4,82.6L32.4,82.6z M26.2,76.9h2.7l-1.4-3.8L26.2,76.9L26.2,76.9z M23.8,80l3.1-8.4h1.4l3.1,8.4H30L29.3,78h-3.4L25.1,80H23.8z"></path><g>	<path class="st1" d="M-145.9,51.3c0.4,0.2,0.6,0.6,0.7,1.1c0.2,1.1,0.3,2.3,0.5,3.4c0.1,0.5-0.1,0.9-0.4,1.3  c-0.4,0.3-0.8,0.4-1.3,0.4c-4,0.6-8,1.1-12.1,1.7c-0.6,0.1-1.1,0-1.5-0.5c-0.1-0.1-0.2-0.3-0.2-0.5c-0.2-1.3-0.4-2.6-0.5-3.9  c-0.1-0.4,0.2-0.8,0.4-1c0.9-0.9,1.6-1.9,2.1-3.2c0.2-0.5,0.6-0.7,1-0.8c2.4-0.3,4.7-0.7,7.1-1c0.5-0.1,1,0.1,1.4,0.6  C-148,49.9-147,50.7-145.9,51.3z M-147.6,56.6c0.5-0.1,0.9-0.1,1.4-0.2c0.4-0.1,0.5-0.2,0.4-0.6c-0.1-1.1-0.3-2.1-0.4-3.2  c0-0.3-0.2-0.5-0.4-0.6c-1.1-0.6-2.1-1.4-2.9-2.5c-0.1-0.1-0.3-0.2-0.4-0.2c-0.5,0-1,0.1-1.5,0.2c-1.9,0.3-3.7,0.5-5.6,0.8  c-0.1,0-0.3,0.2-0.4,0.4c-0.4,1.1-1,2.1-1.9,2.9c-0.3,0.3-0.5,0.6-0.4,1.1c0.2,1,0.3,1.9,0.4,2.9c0.1,0.6,0.1,0.6,0.7,0.5  c3.5-0.5,7-1,10.6-1.5C-147.8,56.7-147.7,56.6-147.6,56.6z"></path>	<path class="st1" d="M-137.3,52.3l-0.1-0.7c-0.1-0.3-0.1-0.5-0.2-0.7l-0.1-0.7c-0.1-0.3-0.1-0.5-0.2-0.7c0-0.2-0.1-0.4-0.1-0.7  c0-0.2-0.1-0.5-0.1-0.7c0-0.1,0-0.2-0.1-0.3c0-0.1-0.1-0.3-0.1-0.4c-0.1-0.3-0.1-0.5-0.2-0.7l-0.2-0.7c-0.1-0.2-0.1-0.5-0.2-0.7  c-0.1-0.2-0.1-0.4-0.2-0.7c-0.1-0.3-0.1-0.5-0.2-0.7c-0.1-0.2-0.2-0.4-0.2-0.7c-0.1-0.2-0.1-0.5-0.2-0.7c-0.1-0.2-0.1-0.4-0.2-0.7  c-0.1-0.5-0.3-0.9-0.4-1.4c-0.1-0.2-0.2-0.5-0.2-0.7c0-0.1,0-0.1-0.1-0.2l0,0c-0.1-0.2-1.2-3-1.3-3.2c-0.1-0.2-0.2-0.5-0.3-0.7  c-0.3-0.4-0.5-0.9-0.8-1.3c0,0-0.1-0.1-0.1-0.1c-0.2-0.2-0.4-0.3-0.5-0.5c-0.1-0.1-0.2-0.2-0.3-0.2c-0.2-0.1-0.4-0.3-0.6-0.4  c0,0-0.1,0-0.1,0c-0.5-0.2-1-0.4-1.5-0.6c-0.3-0.1-0.6-0.2-1-0.3c-0.2-0.1-0.4-0.1-0.5-0.1c-0.1,0-0.2-0.1-0.3-0.1  c-0.3-0.1-0.4-0.2-0.4-0.5c-0.1-0.2-0.1-0.5-0.2-0.7c-0.2-0.4-0.5-0.8-0.7-1.3c-0.3-0.4-0.7-0.7-1.2-0.9c-0.5-0.1-1-0.2-1.5-0.3  c-0.2,0-0.5,0-0.7,0c-0.3,0-0.5,0-0.8,0c-0.5,0-1-0.1-1.5,0c-0.7,0.1-1.5,0.1-2.2,0.2c-0.3,0-0.5,0.1-0.8,0.2  c-0.6,0.1-1.2,0.3-1.8,0.4c-0.2,0.1-0.5,0.2-0.7,0.2c-0.2,0.1-0.4,0.2-0.7,0.2c-0.5,0.2-0.9,0.5-1.4,0.7c-0.2,0.2-0.4,0.4-0.7,0.7  c-0.1,0.3-0.3,0.5-0.4,0.8c0,0,0,0,0,0c0,0.2,0,0.4-0.1,0.7c0,0.3-0.1,0.5-0.1,0.8c0,0.2,0,0.5,0,0.7l0.1,0.4  c-0.1,0.1-0.2,0.1-0.4,0.2c-0.4,0.3-0.8,0.5-1.3,0.8c-0.5,0.3-0.9,0.6-1.4,1c-0.6,0.5-1,1.1-1.4,1.8c-0.2,0.5-0.3,1-0.4,1.5  c0,0.3-0.1,0.5-0.1,0.8c-0.1,0.5-0.1,1-0.2,1.5c0,0.2,0,0.5-0.1,0.7c0,0.3-0.1,0.5-0.1,0.8c0,0.2,0,0.5,0,0.7c0,0.5,0,1-0.1,1.5  c0,0.2,0,0.5,0,0.7c0,0.2,0,0.5,0,0.7c0,0.3,0,0.5,0,0.8c0,0.2,0,0.5,0,0.7c0,0.3,0,0.5,0,0.8c0,0.2,0,0.5,0,0.7c0,0.2,0,0.3,0,0.5  c0,0.1,0,0.2,0,0.3c0,0.2,0,0.5,0,0.7c0,0.3,0,0.5,0,0.8c0,0.2,0,0.5,0,0.7c0,0.2,0.1,0.5,0.1,0.7c0,0.2,0,0.5,0,0.7  c0,0.3,0,0.5,0,0.8l0.2,1.4c0,0.2,0,0.5,0,0.7c0,0.2,0.1,0.5,0.1,0.7l0.3,2.1c0,0.2,0.1,0.5,0.2,0.7c0.2,0.2,0.3,0.4,0.5,0.6  c0.5,0.1,0.5,0.1,0.6,0.7c0,0.2,0.1,0.4,0.2,0.7c0.1,0.5,0.5,0.7,0.9,0.8c0.3,0,0.5,0,0.8,0l2.1-0.3c0.2,0,0.5-0.1,0.7-0.1  c0.4-0.2,0.7-0.4,0.9-0.8c0.2,0.1,0.6,0,0.5,0.4c0.1,0.5,0.4,0.9,0.7,1.3c0.1,0,0.1,0.1,0.1,0.1c0.2,0.1,0.4,0.2,0.5,0.3  c0.2,0,0.3,0,0.5,0c4.2-0.6,8.4-1.2,12.5-1.8c0.7-0.1,1.5-0.3,2.2-0.4c0.2-0.2,0.4-0.4,0.6-0.6c0,0,0,0,0,0  c0.1-0.2,0.1-0.5,0.2-0.7c0-0.2,0-0.5,0-0.7c-0.1-0.3,0-0.4,0.3-0.5c0.1-0.1,0.2-0.1,0.3,0c0.1,0.1,0.3,0.2,0.4,0.3  c0,0,0.1,0,0.1,0.1c0.2,0,0.5,0,0.7,0.1l2.9-0.4c0.2-0.1,0.5-0.2,0.7-0.3c0.1,0,0.1-0.1,0.2-0.2c0.3-0.4,0.3-0.9,0.2-1.4  c-0.1-0.4-0.1-0.6,0.3-0.8c0.2-0.1,0.3-0.5,0.4-0.7c0-0.3,0-0.5,0-0.8l-0.3-2.1C-137.2,52.8-137.2,52.6-137.3,52.3z M-149.3,31.8  c0,0.4-0.3,0.6-0.6,0.8c-0.7,0.4-1.5,0.8-2.2,1.3c-0.3,0.2-0.6,0.3-0.9,0.5c0.9-1.5,1.9-3,2.8-4.5C-149.7,30.3-149.3,31-149.3,31.8  z M-153.8,33.6c-0.4,0.5-0.7,0.9-1.1,1.4c-0.1,0.2-0.3,0.4-0.4,0.5c-0.1,0-0.2,0.1-0.3,0c-1-0.7-2.1-1.5-3.1-2.2  c-0.1,0-0.1-0.1-0.1-0.2l6-0.9C-153.2,32.8-153.5,33.2-153.8,33.6z M-151.1,29.3c-0.3,0.6-0.6,1.3-1,1.8c-0.2,0.2-0.6,0.2-0.9,0.2  c-0.1,0-0.2,0-0.2,0c-1.3,0.2-2.6,0.3-3.8,0.5c-0.9,0.1-1.7,0.3-2.6,0.5c-0.1,0-0.3,0-0.4-0.1c-0.5-0.4-0.9-0.9-1.4-1.4  C-158.1,29.3-154.7,28.8-151.1,29.3z M-162.6,33c0.1-0.5,0.2-0.9,0.3-1.3c0-0.1,0.1-0.1,0.1-0.1c1.3,1.2,2.6,2.3,3.9,3.6  c-0.7-0.2-1.3-0.3-1.9-0.4c-0.5-0.1-1.1-0.3-1.6-0.4C-162.4,34.1-162.7,33.6-162.6,33z M-162.2,61.3c0,0.2-0.1,0.3-0.3,0.3  c-0.5,0.1-1,0.1-1.5,0.2l-0.1,0c-0.4,0.1-0.8,0.1-1.2,0.2c-0.1,0-0.3-0.1-0.3-0.2c-0.1-0.3-0.1-0.5-0.1-0.8l3.5-0.5  C-162.2,60.7-162.2,61-162.2,61.3z M-162.5,58.4c0,0.1,0,0.2,0,0.3l0.1,0.6l-1.8,0.3c-0.8,0.1-1.5,0.2-2.3,0.3  c-0.3,0-0.3-0.1-0.4-0.3c-0.1-0.9-0.2-1.7-0.4-2.6c-0.1-0.6-0.2-1.2-0.2-1.7c-0.1-1.1-0.2-2.2-0.3-3.2c0-0.7-0.1-1.3-0.1-2  c0-0.9,0-1.8,0-2.7c0-0.7,0-1.4,0-2.1c0-1.1,0.1-2.1,0.2-3.2c0-0.3,0.1-0.6,0.1-0.9c0.1-1,0.2-2,0.6-2.9c0,0,0.1,0,0.1,0  c0.5,1,0.9,2.1,1.4,3.1c0.3,0.7,0.5,1.4,0.7,2.1c0.1,0.5,0.3,1,0.3,1.4c0.3,1.7,0.6,3.5,0.8,5.2c0.2,1.2,0.7,4.6,0.9,6.4  L-162.5,58.4z M-144.3,60.3C-144.3,60.3-144.3,60.3-144.3,60.3c0,0.1,0,0.1,0,0.1c0,0.1,0,0.1-0.1,0.2c-0.1,0.1-0.1,0.2-0.2,0.2  c-0.1,0-0.1,0.1-0.2,0.1l-0.4,0.1c-0.3,0-0.7,0.1-1,0.1c-0.7,0.1-1.4,0.2-2.1,0.3l-10.3,1.5c-0.1,0-0.3,0-0.4,0  c-0.1,0-0.2,0-0.2-0.1c-0.1,0-0.1-0.1-0.1-0.2c0-0.1-0.1-0.2-0.1-0.4l-0.1-0.5l13.1-1.8c0.1,0,0.1,0,0.2,0l1.9-0.3l0,0  C-144.3,59.8-144.3,60.1-144.3,60.3z M-145.3,39c-0.1,0.7,0,1.4,0,2c0.2,3.5,0.9,7,1.3,10.5c0.2,1.9,0.5,3.7,0.8,5.6  c0.1,0.9-0.3,1.5-1.1,1.5c-0.2,0-0.4,0.1-0.6,0.1c-0.4,0.1-0.9,0.1-1.3,0.2c-4.7,0.7-9.3,1.3-14,2c-0.6,0.1-1-0.2-1.1-0.8  c-0.1-0.9-0.2-1.8-0.4-2.7c0-0.1,0-0.2,0-0.3c-0.4-2.5-1.1-8-1.5-10.4c-0.2-1.5-0.6-2.9-1-4.4c-0.6-1.7-1.3-3.4-2.2-5  c0.4-0.3,0.7-0.6,1.1-0.9c0.7-0.5,1.4-0.9,2.2-1.4c0.1-0.1,0.2-0.1,0.3-0.1c0.5,0.4,1.1,0.4,1.7,0.6c1.2,0.3,2.4,0.6,3.7,0.9  c0.1,0,0.2,0.2,0.2,0.3c0.2,1.7,0.5,3.3,0.7,5c0,0.1,0,0.2,0,0.3c0.1,0.2,0.2,0.4,0.5,0.4c0.3,0,0.5-0.3,0.5-0.6  c0-0.2-0.1-0.5-0.1-0.7c-0.2-1.5-0.4-2.9-0.6-4.4c0,0,0.1,0,0.1,0c0.6,0.1,1.1,0,1.7-0.3c0,0,0.1,0,0.1,0c0.1,0.9,0.2,1.7,0.4,2.6  c0.1,0.5,0.2,0.6,0.6,0.6c0.4-0.1,0.5-0.3,0.5-0.8c-0.1-0.9-0.3-1.9-0.4-2.8c0-0.2,0-0.3,0.2-0.5c1.3-0.7,2.6-1.5,3.9-2.2  c0.1,0,0.2-0.1,0.2-0.1c0.3-0.5,0.7-0.5,1.3-0.3c0.8,0.3,1.7,0.6,2.6,0.8c0,0,0,0,0.1,0c0.5,0.3,0.5,0.3,0.4,0.9  C-144.9,36.1-145.1,37.5-145.3,39z M-139.4,58.3c-0.3,0-0.6,0.1-0.9,0.1l-0.1,0c-0.4,0.1-0.8,0.1-1.2,0.2c-0.2,0-0.4-0.1-0.4-0.3  c-0.1-0.3-0.1-0.5-0.1-0.8l3.5-0.5c0,0,0,0,0,0.1C-138.4,58.3-138.3,58.2-139.4,58.3z M-138.3,56c-0.4,0.1-0.9,0.1-1.4,0.2  l-2.6,0.4l-0.1-0.4c-0.7-4.6-1.3-9.2-1.9-13.9c-0.1-1-0.1-2-0.1-3c0-0.5,0.1-0.9,0.1-1.4c0.1-0.9,0.3-1.7,0.4-2.6  c0-0.1,0.1-0.3,0.1-0.4c0,0,0.1,0,0.1,0c0.3,0.7,0.7,1.4,1,2c0,0.1,0.9,2.1,1.1,2.6c0,0.2,0.1,0.4,0.2,0.5c0.2,0.8,0.5,1.5,0.7,2.3  c0.2,0.7,0.4,1.4,0.6,2.2c0.2,0.5,0.2,1,0.4,1.5c0.2,0.6,0.3,1.3,0.5,1.9c0.1,0.4,0.2,0.8,0.2,1.2c0.1,0.7,0.3,1.5,0.4,2.2  c0.2,1.3,0.5,2.7,0.7,4C-137.8,55.9-137.8,55.9-138.3,56z"></path></g><g>	<g>		<path class="st1" d="M45.2,28.9c-0.3,0-0.5,0-0.8,0c0,0.4,0,0.8,0,1.1c0,0.4,0.1,0.6,0.5,0.5c0.1,0,0.3,0,0.4,0c0.2,0,0.5,0,0.7,0   c0-0.3,0-0.6,0-0.8c0-0.3,0-0.5,0-0.8C45.7,28.9,45.5,28.9,45.2,28.9z M45.2,19.6c-0.5,0.4-0.8,0.8-0.8,1.5c0.1,1.8,0,3.6,0,5.3   c0,0.2,0,0.4,0,0.7c0.3,0,0.5,0,0.8,0c0.8,0,0.8,0,0.8-0.8c0-1.7,0-3.5,0-5.2C46.1,20.5,45.8,20,45.2,19.6z M63.6,33.7   c1.1-0.4,2.3-0.8,3.4-1.3c-0.2-0.6-0.4-1.2-0.5-1.8c-1,0.4-2,0.8-2.9,1.2c-0.8,0.3-1.5,0.5-2.3,0.8c0,0.7,0,1.3,0,2   C62.1,34.3,62.8,34,63.6,33.7z M27.3,31.8c-0.7-0.3-1.4-0.5-2.1-0.8c-0.8-0.3-0.8-0.3-1.1,0.5c-0.3,0.9-0.3,1,0.5,1.3   c0.9,0.3,1.8,0.6,2.7,1c0.7,0.3,1.4,0.6,2.2,0.9c0-0.7,0-1.3,0-2C28.8,32.3,28.1,32.1,27.3,31.8z M40.5,12.3   c0.9,0.9,1.8,1.8,2.8,2.7c0.6,0.6,1.3,1.3,1.9,1.8c1.6-1.5,3.2-3.1,4.8-4.6c0,0,0,0,0.1,0c0,0,0,0-0.1,0c-1.3,0-2.7,0-4,0   c-1.8,0-3.6,0-5.3,0c-0.1,0-0.1,0-0.2,0C40.5,12.2,40.5,12.3,40.5,12.3z M52.3,12.5c-2,2-3.9,3.9-5.9,5.9c0.6,0.5,1.2,1,1.8,1.5   c0.1,0.1,0.5,0.1,0.6,0c0.3-0.3,0.5-0.6,0.7-0.9c1.4-1.9,2.8-3.8,4.2-5.8C53.2,12.9,52.7,12.7,52.3,12.5z M36.7,13.2   c0.4,0.5,0.6,0.9,0.9,1.2c1.3,1.8,2.7,3.6,4,5.4c0.2,0.3,0.4,0.3,0.6,0.1c0.6-0.5,1.3-1,1.9-1.6C44,18.2,44,18.2,44,18.1   c-1.8-1.8-3.6-3.6-5.4-5.4c-0.1-0.1-0.4-0.2-0.6-0.2C37.6,12.7,37.2,13,36.7,13.2z M22,32.3c0-0.2,0.1-0.4,0.1-0.5   c0-0.1,0-0.3,0.1-0.4c0.1-0.4,0.3-0.8,0.5-1.2c0.1-0.4,0.3-0.8,0.4-1.3c0.2-0.7,0.5-1.5,0.7-2.2c0.1-0.3,0.2-0.6,0.2-0.9   c0.2-0.8,0.5-1.5,0.7-2.3c0.1-0.4,0.2-0.8,0.3-1.1c0.1-0.4,0.3-0.7,0.4-1c0-0.1,0-0.2,0-0.3c0.1-0.3,0.2-0.6,0.3-0.8   c0.1-0.3,0.2-0.7,0.3-1c0.4-0.7,0.8-1.5,1.2-2.2c0.1-0.1,0.2-0.2,0.3-0.3c0.4-0.3,0.7-0.6,1-0.8c0.7-0.4,1.5-0.8,2.2-1.2   c0.7-0.4,1.5-0.8,2.2-1.2c0.7-0.4,1.5-0.8,2.2-1.3c0.4-0.2,0.7-0.4,1-0.6c0.1,0,0.1-0.1,0.2-0.1c0.3-0.1,0.6-0.3,0.9-0.4   c0.4-0.1,0.8-0.2,1.1-0.3c0.7-0.1,1.3-0.2,2-0.2c3.3,0,6.5,0,9.8,0c0.8,0,1.5,0.2,2.3,0.3c0.4,0.1,0.8,0.2,1.1,0.3   c0.7,0.4,1.5,0.8,2.2,1.2c0.7,0.4,1.5,0.8,2.2,1.3c0.7,0.4,1.4,0.8,2.1,1.2c0.2,0.1,0.5,0.2,0.7,0.3c0.5,0.3,0.9,0.6,1.4,0.9   c0.4,0.3,0.8,0.7,1.2,1c0,0,0.1,0.1,0.1,0.1c0.4,0.7,0.7,1.4,1.1,2.1c0.1,0.4,0.3,0.7,0.4,1c0.2,0.7,0.4,1.5,0.7,2.2   c0.1,0.4,0.2,0.8,0.3,1.1c0.1,0.4,0.2,0.7,0.3,1c0.2,0.7,0.5,1.5,0.7,2.2c0.1,0.4,0.2,0.8,0.3,1.1c0.2,0.7,0.5,1.5,0.7,2.2   c0.1,0.3,0.2,0.7,0.3,1c0.1,0.5,0.3,1.1,0.4,1.6c0.1,0.5-0.1,0.8-0.5,1c-0.2,0.1-0.3,0.2-0.5,0.2c-0.7,0.3-1.5,0.5-2.2,0.8   c-0.7,0.3-1.5,0.5-2.2,0.8c-0.3,0.1-0.7,0.2-1,0.3c-0.3,0.1-0.6,0.2-0.9,0.3c-0.1,0.1-0.2,0.3-0.3,0.4c0,0.3,0,0.7,0,1   c0,0.4,0,0.8,0,1.1c0,0.3,0,0.7,0,1c0,0.4,0,0.8,0,1.1c0,0.3,0,0.7,0,1c0,0.4,0,0.8,0,1.1c-0.1,0.9-0.3,1.1-0.9,1.3   c-0.6-0.1-0.8-0.5-0.8-1.2c0-4.9,0-9.7,0-14.6c0-0.2,0-0.5,0-0.7c0.1-0.4,0.2-0.7,0.7-0.7c0.6,0,1,0.3,1,1c0,0.8,0,1.7,0,2.6   c1.5-0.6,2.9-1.1,4.4-1.7c0.1,0,0.2-0.3,0.2-0.5c-0.4-1.4-0.8-2.7-1.3-4.1c-0.5-1.6-1-3.1-1.4-4.7c-0.3-1.1-0.9-1.9-1.9-2.5   c-2-1.2-4-2.3-5.9-3.4c-1.6,2.2-3.2,4.4-4.9,6.7c-0.7,0.9-1.4,1.6-2.7,1c0,0.5,0,0.9,0,1.4c0,2.7,0,5.4,0,8.1   c0,0.9-0.3,1.1-1.1,1.2c-1,0-1.9,0-2.9,0c-0.7,0-1-0.3-1-1c0-3,0-6,0-9c0-0.2,0-0.4,0-0.6c-0.9,0.5-1.7,0.3-2.2-0.4   c-0.9-1.1-1.8-2.3-2.6-3.5c-0.8-1.1-1.5-2.2-2.3-3.2c-0.1-0.2-0.3-0.4-0.6-0.2c-1.8,1.1-3.6,2.1-5.4,3.1c-0.8,0.5-1.4,1.2-1.7,2.1   c-0.2,0.6-0.4,1.2-0.6,1.8c-0.8,2.6-1.6,5.2-2.4,7.8c1.6,0.6,3.1,1.2,4.7,1.8c0-0.3,0-0.5,0-0.7c0-0.7,0-1.5,0-2.2   c0-0.4,0.2-0.8,0.7-0.8c0.5,0,0.8,0.1,0.9,0.7c0,0.2,0.1,0.4,0.1,0.7c0,9.8,0,19.6,0,29.4c0,0.2,0,0.4,0,0.7c0.2,0,0.4,0,0.6,0   c1.5,0,6.7,0,8.2,0c0.6,0,1.1,0.1,1.3,0.8c-0.2,0.7-0.6,0.9-1.3,0.8c-1.1,0-5.9,0-7,0c-0.6,0-1.2,0-1.7,0c0,0.6,0,1.1,0,1.6   c0,0,0.1,0.1,0.1,0.1c0.2,0,0.4,0,0.6,0c9,0,17.9,0,26.9,0c0.2,0,0.4,0,0.6,0c0,0,0.1-0.1,0.1-0.1c0-0.5,0-1,0-1.6   c-0.2,0-0.4,0-0.6,0c-6.3,0-12.6,0-18.9,0c-0.7,0-0.9-0.1-1.1-0.8c0.3-0.7,0.4-0.8,1.2-0.8c6.3,0,12.6,0,18.9,0c0.2,0,0.4,0,0.7,0   c0-0.3,0-0.5,0-0.7c0-3.8,0-12.2,0-16c0-0.7,0.1-0.9,0.8-1c0.3,0.2,0.5,0.3,0.8,0.5c0,0.1,0.1,0.3,0.1,0.4c0,0.4,0,5.4,0,5.7   c0,0.3,0,0.7,0,1c0,0.4,0,0.8,0,1.1c0,0.3,0,0.7,0,1c0,0.4,0,0.8,0,1.1c0,0.3,0,0.7,0,1c0,0.4,0,0.8,0,1.1c0,0.3,0,0.7,0,1   c0,0.4,0,0.8,0,1.1c0,0.3,0,0.7,0,1c0,0.4,0,0.8,0,1.1c0,0.3,0,0.7,0,1c0,0.4,0,0.8,0,1.1c0,0.3,0,0.7,0,1c0,0.4,0,0.8,0,1.1   c0,0.1-0.1,0.2-0.1,0.3c-0.2,0.3-0.5,0.5-1,0.5c-9.9,0-19.8,0-29.7,0c-0.2,0-0.5-0.1-0.7-0.2c-0.1-0.2-0.2-0.4-0.3-0.6   c0-0.4,0-0.8,0-1.1c0-0.3,0-0.7,0-1c0-0.4,0-0.8,0-1.1c0-0.3,0-0.7,0-1c0-0.4,0-0.8,0-1.1c0-0.3,0-0.7,0-1c0-0.4,0-0.8,0-1.1   c0-0.3,0-0.7,0-1c0-0.4,0-0.8,0-1.1c0-0.3,0-0.7,0-1c0-0.4,0-0.8,0-1.1c0-0.3,0-0.7,0-1c0-0.4,0-0.8,0-1.1c0-0.3,0-0.7,0-1   c0-0.4,0-0.8,0-1.1c0-0.3,0-0.7,0-1c0-0.4,0-0.8,0-1.1c0-0.3,0-0.7,0-1c0-0.4,0-0.8,0-1.1c0-0.3,0-0.7,0-1c0-0.4,0-0.8,0-1.1   c0-0.3,0-0.7,0-1c0-0.4,0-0.8,0-1.1c0-0.3,0-0.7,0-1c0-0.1-0.1-0.3-0.1-0.3c-0.2-0.1-0.5-0.2-0.7-0.2c-0.4-0.1-0.8-0.3-1.1-0.4   c-0.7-0.3-1.5-0.5-2.2-0.8c-0.4-0.1-0.8-0.3-1.1-0.4c-0.2,0-0.3-0.1-0.5-0.1c-0.6-0.3-1.1-0.6-1.7-0.9"></path>		<path class="st1" d="M22,30.1"></path>		<path class="st1" d="M22,32.3"></path>		<path class="st1" d="M40.6,12.2c0,0-0.1,0.1-0.1,0.2c0,0-0.1-0.1-0.1-0.1C40.5,12.2,40.6,12.2,40.6,12.2z"></path>		<path class="st1" d="M59.4,62C59.5,62,59.5,61.9,59.4,62C59.5,61.9,59.5,62,59.4,62z"></path>		<path class="st1" d="M31.2,61.9C31.2,61.9,31.3,62,31.2,61.9C31.3,62,31.2,61.9,31.2,61.9z"></path>		<path class="st1" d="M50,12.2C50,12.2,50,12.2,50,12.2C50,12.2,50,12.2,50,12.2C50,12.2,50,12.2,50,12.2z"></path>		<path class="st1" d="M53.3,28.8c-0.7,0-1.5,0-2.2,0c-0.5,0-0.9-0.4-0.9-0.8c0-0.5,0.3-0.9,0.8-0.9c1.6,0,3.2,0,4.8,0   c0.6,0,0.8,0.3,0.8,0.8c0,0.5-0.3,0.8-0.9,0.8C54.9,28.8,54.1,28.8,53.3,28.8z"></path>	</g>	<path class="st1" d="M31.8,58.7c1.5,0,6.7,0,8.2,0c0.6,0,1.1,0.1,1.3,0.8c-0.2,0.7-0.6,0.9-1.3,0.8c-1.1,0-5.9,0-7,0"></path></g></svg>