<svg xmlns="http://www.w3.org/2000/svg" id="Layer_1" viewBox="0 0 90.92 96.37"><defs><style>.cls-1{fill:#fff;}.cls-2{fill:#5bc099;}</style></defs><rect class="cls-2" y="0" width="90.92" height="96.37" rx="17.01" ry="17.01"></rect><path class="cls-1" d="m28.78,45.43c-.1-.04-.16-.08-.24-.1-.55-.12-1.09-.28-1.65-.35-1.19-.14-2.38-.08-3.56.06-.87.1-1.7.31-2.42.77-.24.15-.46.35-.62.56-.34.45-.25,1.04.19,1.42.18.15.38.28.59.39.4.2.86.27,1.31.31.83.06,1.63.02,2.39-.35,1.13-.54,2.13-1.23,3.08-1.98.3-.24.6-.48.93-.74h0Zm14.02-24.35s-.03-.02-.04-.03c-3.33,1.26-6.03,3.21-8.05,5.82-2.1,2.71-3.18,5.72-3.13,9.04.18-.02.32-.04.46-.06.68-.09,1.35-.21,2.04-.26.67-.04,1.35,0,2.02,0,.13,0,.19-.02.21-.14.19-1.16.37-2.32.59-3.47.16-.79.37-1.57.58-2.35.49-1.8,1.21-3.53,2.24-5.15.78-1.22,1.74-2.33,2.93-3.27.05-.04.09-.08.13-.12h.02Zm14.64-.11s-.02.03-.03.04c.02.02.04.05.05.07.37.54.78,1.06,1.09,1.62.78,1.39,1.29,2.86,1.59,4.38.27,1.38.45,2.78.47,4.18.02,1.29.02,2.57-.15,3.86-.1.72-.16,1.45-.3,2.16-.34,1.67-.77,3.31-1.6,4.86-.05.1-.04.16.1.18.16.02.32.06.48.07,1.12.12,2.24.25,3.37.35,1.48.13,2.96.08,4.44-.03.14,0,.22-.06.27-.17.22-.5.46-.99.67-1.48.48-1.15.75-2.34.87-3.56.09-.92.13-1.83.04-2.75-.08-.72-.15-1.45-.31-2.15-.39-1.66-1.08-3.23-2.05-4.7-1.23-1.87-2.83-3.45-4.78-4.78-1.17-.8-2.44-1.43-3.78-1.99-.14-.06-.28-.1-.42-.15h-.02Zm-33.39,22.32h.67c.92-.03,1.83-.06,2.74.1,1.34.24,2.59.72,3.82,1.23,1.31.53,2.6,1.11,3.91,1.64,2.11.85,4.23,1.7,6.36,2.52.47.18.98.3,1.47.43.27.07.55.11.83.15.19.03.38.1.56.08.42-.03.84-.08,1.26-.14,1.35-.19,2.58-.63,3.61-1.42.27-.21.53-.43.8-.64,1.65-1.31,3.29-2.62,4.94-3.93.04-.03.08-.07.13-.12-.08-.02-.13-.04-.18-.05-.91-.27-1.83-.53-2.72-.83-1.13-.38-2.25-.78-3.37-1.2-1.73-.65-3.45-1.32-5.18-1.98-1.63-.62-3.3-1.15-5.02-1.55-1.61-.38-3.24-.48-4.89-.37-.89.06-1.76.21-2.59.51-.13.05-.27.11-.38.2-1.69,1.33-3.38,2.68-5.07,4.02-.56.45-1.12.89-1.71,1.35h0Zm34.7-11.19v-1.14c-.03-1.47-.26-2.92-.61-4.36-.31-1.23-.76-2.41-1.42-3.53-.64-1.07-1.48-2-2.62-2.7-.15-.09-.23-.1-.36.03-.61.57-1.36.75-2.23.58-.69-.13-1.15-.51-1.52-1.01-.04-.05-.16-.12-.21-.11-.93.24-1.87.45-2.76.78-2.52.95-4.36,2.52-5.68,4.59-.84,1.32-1.44,2.72-1.88,4.17-.48,1.55-.88,3.12-1.06,4.73-.06.52-.14,1.03-.21,1.55-.02.13.02.19.18.21.99.14,1.95.42,2.89.71,1.07.33,2.13.69,3.18,1.08,1.63.6,3.24,1.24,4.87,1.85.88.33,1.77.66,2.67.96.75.26,1.52.48,2.28.71.74.22,1.48.43,2.23.63.06.02.19-.03.22-.08.18-.3.36-.6.5-.92.69-1.48.96-3.05,1.25-4.61.26-1.37.29-2.75.29-4.13h0Zm5.67,12.3c-1.41.05-2.82-.02-4.21-.21-.9-.12-1.8-.3-2.69-.46-.18-.03-.31,0-.44.1-.92.74-1.84,1.48-2.77,2.21-1.31,1.04-2.6,2.1-3.93,3.11-1.17.89-2.55,1.44-4.07,1.7-1.77.3-3.51.14-5.17-.49-1.47-.56-2.94-1.14-4.4-1.73-2-.81-4-1.64-5.99-2.46-.15-.06-.22,0-.31.06-.85.67-1.68,1.36-2.55,2-1.01.73-2.1,1.35-3.37,1.71-1.04.29-2.07.28-3.11.04-.86-.2-1.65-.52-2.26-1.1-.82-.78-1.16-1.67-.79-2.7.18-.49.52-.91.95-1.27.97-.78,1.95-1.55,2.92-2.33,1.8-1.43,3.6-2.85,5.4-4.27.65-.52,1.29-1.04,1.95-1.56.12-.09.15-.19.15-.32.02-.76-.01-1.53.09-2.28.16-1.25.43-2.48.88-3.68.91-2.42,2.34-4.57,4.29-6.46,1.5-1.47,3.25-2.67,5.22-3.63,1.14-.56,2.32-1.04,3.58-1.38,1.19-.32,2.39-.64,3.64-.73.8-.06,1.6-.1,2.4-.16.09,0,.2-.07.25-.13.47-.61,1.12-.95,1.97-.98.81-.03,1.81.51,2.11,1.18.09.2.23.28.46.33,2.47.49,4.78,1.33,6.89,2.56,2.48,1.43,4.52,3.24,6.1,5.43,1.16,1.61,2.02,3.33,2.51,5.18.2.77.39,1.56.5,2.34.14,1.01.14,2.03.07,3.05-.09,1.33-.41,2.62-.82,3.89-.36,1.08-.87,2.11-1.45,3.12-.04.07-.16.14-.24.15-.66.07-1.31.14-1.97.17-.59.03-1.17,0-1.76,0h-.03Z"></path><path class="cls-1" d="m69.97,80v-5.95h1.14l.11,1.13c.21-.39.5-.7.86-.92.38-.23.83-.35,1.36-.35v1.33h-.35c-.35,0-.67.06-.95.18-.27.11-.49.31-.66.59-.16.27-.24.65-.24,1.14v2.86h-1.27Zm-4.44-.89c.34,0,.63-.08.86-.24.24-.17.42-.39.55-.66.14-.27.22-.57.25-.9h-1.42c-.5,0-.86.09-1.08.26-.21.18-.31.4-.31.66s.1.49.3.65c.21.15.49.23.84.23h0Zm-.25,1.03c-.5,0-.92-.08-1.25-.25s-.57-.39-.73-.66c-.16-.28-.24-.58-.24-.91,0-.58.22-1.03.67-1.37.45-.34,1.09-.5,1.92-.5h1.56v-.11c0-.46-.13-.81-.38-1.04s-.57-.35-.97-.35c-.35,0-.66.09-.92.26-.26.17-.41.42-.47.76h-1.27c.04-.43.18-.8.43-1.1.26-.31.58-.55.96-.71.39-.17.82-.25,1.28-.25.83,0,1.48.22,1.93.66.46.43.68,1.02.68,1.78v3.66h-1.1l-.11-1.02c-.17.33-.41.6-.73.83s-.74.34-1.26.34v-.02Zm-6.24-5.2c-.42,0-.8.13-1.13.38s-.53.62-.6,1.13h3.36c-.02-.46-.19-.83-.49-1.1-.3-.27-.68-.41-1.14-.41Zm0,5.2c-.58,0-1.1-.13-1.56-.38-.45-.26-.8-.63-1.06-1.09s-.38-1-.38-1.62.12-1.17.37-1.64c.26-.47.61-.84,1.06-1.1.46-.26.98-.4,1.58-.4s1.09.13,1.52.4c.43.26.77.6,1.01,1.03s.36.91.36,1.43c0,.08,0,.17,0,.26,0,.09,0,.19,0,.3h-4.63c.04.58.23,1.02.56,1.32.34.3.74.44,1.19.44.36,0,.66-.08.9-.24.25-.17.43-.39.55-.67h1.27c-.16.56-.48,1.03-.96,1.4-.47.38-1.06.56-1.76.56h0Zm-10.71-.14l-1.75-5.95h1.27l1.15,4.49,1.3-4.49h1.42l1.3,4.49,1.15-4.49h1.27l-1.75,5.95h-1.31l-1.37-4.68-1.37,4.68h-1.31Zm-5.92-.96c.54,0,.99-.19,1.33-.56.35-.38.53-.86.53-1.45s-.18-1.08-.53-1.45c-.34-.38-.79-.56-1.33-.56s-.99.19-1.34.56c-.35.37-.53.85-.53,1.45,0,.39.08.74.24,1.04s.38.54.66.72c.29.17.61.25.97.25Zm-.23,1.1c-.58,0-1.08-.14-1.52-.41-.44-.27-.78-.64-1.03-1.12-.25-.47-.37-1.01-.37-1.61s.12-1.13.37-1.6.59-.84,1.03-1.1c.45-.27.96-.41,1.54-.41.47,0,.88.09,1.24.28.36.18.64.44.84.78v-3.6h1.27v8.64h-1.14l-.13-.92c-.19.28-.46.53-.79.74s-.77.32-1.3.32h-.01Zm-7.15-1.03c.34,0,.63-.08.86-.24.24-.17.42-.39.55-.66.14-.27.22-.57.25-.9h-1.42c-.5,0-.86.09-1.08.26-.21.18-.31.4-.31.66s.1.49.3.65c.21.15.49.23.84.23h.01Zm-.25,1.03c-.5,0-.92-.08-1.25-.25s-.57-.39-.73-.66c-.16-.28-.24-.58-.24-.91,0-.58.22-1.03.67-1.37s1.09-.5,1.92-.5h1.56v-.11c0-.46-.13-.81-.38-1.04s-.57-.35-.97-.35c-.35,0-.66.09-.92.26-.26.17-.41.42-.47.76h-1.27c.04-.43.18-.8.43-1.1.26-.31.58-.55.96-.71.39-.17.82-.25,1.28-.25.83,0,1.48.22,1.93.66.46.43.68,1.02.68,1.78v3.66h-1.1l-.11-1.02c-.17.33-.41.6-.73.83-.32.22-.74.34-1.26.34v-.02Zm-6.24-5.2c-.42,0-.8.13-1.13.38s-.53.62-.6,1.13h3.36c-.02-.46-.19-.83-.49-1.1s-.68-.41-1.14-.41Zm0,5.2c-.58,0-1.1-.13-1.56-.38-.45-.26-.8-.63-1.06-1.09s-.38-1-.38-1.62.12-1.17.37-1.64c.26-.47.61-.84,1.06-1.1.46-.26.98-.4,1.58-.4s1.09.13,1.52.4c.43.26.77.6,1.01,1.03s.36.91.36,1.43c0,.08,0,.17-.01.26,0,.09,0,.19-.01.3h-4.63c.04.58.23,1.02.56,1.32.34.3.74.44,1.19.44.36,0,.66-.08.9-.24.25-.17.43-.39.55-.67h1.27c-.16.56-.48,1.03-.96,1.4-.47.38-1.06.56-1.76.56h0Zm-11.06-.14v-8.4h1.27v3.6h4.07v-3.6h1.27v8.4h-1.27v-3.76h-4.07v3.76h-1.27Z"></path></svg>