<svg xmlns="http://www.w3.org/2000/svg" id="Layer_1" viewBox="0 0 90.92 96.37"><defs><style>.cls-1{fill:#fff;}.cls-2{fill:#d12c96;}</style></defs><rect class="cls-2" x="0" y="0" width="90.92" height="96.37" rx="17.01" ry="17.01"></rect><path class="cls-1" d="m55.63,81.4c-.75,0-1.37-.18-1.86-.55s-.77-.86-.84-1.46h1.28c.06.27.22.51.46.71.24.19.56.29.95.29s.66-.08.84-.24c.18-.16.26-.34.26-.55,0-.3-.12-.51-.37-.61-.24-.11-.58-.21-1.01-.3-.34-.07-.67-.17-1.01-.29-.33-.12-.6-.29-.83-.5-.22-.22-.32-.52-.32-.9,0-.52.2-.95.6-1.3.4-.35.96-.53,1.68-.53.66,0,1.2.16,1.61.48.42.32.66.77.73,1.36h-1.22c-.04-.26-.16-.46-.36-.6-.19-.14-.45-.22-.78-.22s-.57.07-.74.2c-.18.13-.26.3-.26.5s.12.37.36.49c.25.12.57.23.97.32.4.09.77.19,1.1.31.34.11.62.28.83.5s.31.55.31.98c0,.54-.2,1-.64,1.36-.42.36-1,.54-1.74.54Zm-7.11-1.1c.54,0,.99-.19,1.33-.56.35-.38.53-.86.53-1.45s-.18-1.08-.53-1.45c-.34-.38-.79-.56-1.33-.56s-.99.19-1.34.56c-.35.37-.53.85-.53,1.45,0,.39.08.74.24,1.04.16.3.38.54.66.72.29.17.61.25.97.25Zm-.23,1.1c-.58,0-1.08-.14-1.52-.41-.44-.27-.78-.64-1.03-1.12-.25-.47-.37-1.01-.37-1.61s.12-1.13.37-1.6c.25-.47.59-.84,1.03-1.1.45-.27.96-.41,1.54-.41.47,0,.88.09,1.24.28.36.18.64.44.84.78v-3.6h1.27v8.64h-1.14l-.13-.92c-.19.28-.46.53-.79.74s-.77.32-1.3.32Zm-5.66-.14v-5.95h1.27v5.95h-1.27Zm.64-7.08c-.24,0-.44-.07-.6-.22-.15-.15-.23-.34-.23-.56s.08-.41.23-.55c.16-.15.36-.23.6-.23s.44.08.59.23c.16.14.24.33.24.55s-.08.41-.24.56c-.15.14-.35.22-.59.22Zm-8.01,7.08v-8.4h1.27v3.6l3.31-3.6h1.57l-3.11,3.35,3.18,5.05h-1.55l-2.54-4.08-.86.94v3.14h-1.27Z"></path><path class="cls-1" d="m55.84,36.84c-.43,1.21-.95,2.12-1.62,2.86-1.96,2.17-4.29,2.94-6.93,2.29-1.76-.44-3.2-1.34-4.28-2.69-.84-1.05-1.23-1.95-1.26-2.91,0-.21-.01-.42-.01-.63,0-.35,0-.71-.03-1.07-.01-.19-.15-.34-.25-.45-.03-.04-.07-.08-.1-.12l-.2-.29-.3.39c-.08.1-.16.2-.23.31-.06.1-.06.2-.07.26v.04c-.28,1.75.15,3.42,1.27,4.95,1.52,2.08,3.39,3.26,5.71,3.63.55.09,1.08.13,1.58.13,1.4,0,2.6-.34,3.64-1.02.86-.56,1.59-1.27,2.39-2.07,1.65-1.65,2.26-3.76,1.89-6.45-.02-.15-.12-.27-.2-.35-.02-.03-.05-.05-.07-.08l-.19-.26-.22.24s-.05.04-.07.07c-.09.08-.22.19-.24.36-.04.32-.06.65-.08.97l-.04.59h.09c0,.1-.01.19-.02.28-.03.37-.06.72-.17,1.04h0Z"></path><path class="cls-1" d="m31.26,32.05c.17.29.41.54.64.76.07.06.15.09.23.09.09,0,.18-.02.25-.05.04-.01.08-.02.12-.03l.3-.05-.09-.28c-.02-.08-.05-.14-.06-.18-.03-.11-.06-.17-.09-.24-.17-.33-.33-.67-.49-1.01-.4-.84-.82-1.7-1.28-2.53-.36-.64-.81-1.22-1.25-1.78-.1-.13-.2-.26-.3-.38-.12-.16-.32-.18-.48-.2-.05,0-.09-.01-.14-.02l-.31-.07v.31c-.01.05-.02.11-.03.16-.02.16-.05.35.02.52.07.17.18.3.28.42.07.08.13.15.17.23.35.61.71,1.23,1.06,1.84.48.83.96,1.67,1.45,2.5h0Z"></path><path class="cls-1" d="m64.12,35.85c.05.03.1.07.16.1.07.04.14.07.21.1.08.04.16.07.23.12.16.11.23.17.25.21-.03.03-.1.08-.26.16l-.05.02c-.08.03-.18.08-.26.18-.1.13-.19.27-.29.41.02-.42.02-.85,0-1.29h0Zm-13.75,18.13c-.16.05-.26.17-.33.27-.02.03-.05.06-.07.09l-.31.3.41.12s.08.02.11.04c.11.04.23.09.36.09.21.01.42.01.63.01l-.04.05-.33.42.39.1s.08.03.13.04c.14.05.3.11.48.06.27-.07.43,0,.66.31l.24.33c.24.33.49.68.77,1,0,0,.01.01.02.02-.03-.01-.07-.02-.1-.03-.17-.06-.36-.12-.55-.05-1.11.42-2.08.81-2.95,1.2-.26.12-.39.08-.54-.16-.2-.3-.39-.61-.58-.91-.19-.31-.39-.61-.59-.92-.12-.18-.25-.39-.44-.55-.16-.13-.45-.18-.65-.11-.13.05-.22.17-.26.37,0,0-.01-.01-.02-.02-.1-.1-.24-.13-.34-.16-.03,0-.06-.01-.09-.02l-.25-.09-.11.33c-.03.08-.06.15-.08.23-.01.06-.02.12-.03.17-.08-.01-.15-.03-.2-.06-.08-.05-.16-.14-.25-.24-.05-.05-.09-.11-.14-.15l-.04-.04-.54-.19v.37c.02.57-.22.64-.76.74-.14.03-.29.05-.4.09l-.08.02c-.14.05-.18.03-.2.03s-.07-.04-.12-.22c-.24-.8-.51-1.65-.89-2.75-.02-.08-.02-.11-.03-.11,0,0,.04-.02.12-.04.11-.02.22-.04.32-.06.23-.04.47-.09.7-.16.16-.04.27-.14.38-.23.01-.01.03-.02.05-.03.09.11.21.19.36.25.45.17,1.06.37,1.66.43.37.03.74.05,1.11.05,1.04,0,2.08-.12,3.09-.24l.5-.06c-.06.02-.13.04-.19.05h0Zm-18.07,1.57c-.75-.54-1.44-1.2-1.72-2.17-.01-.04,0-.12.03-.18.03,0,.08,0,.09,0,.62.29,1.65,1.38,1.6,2.34h0Zm.78-20.09c0,.41-.07.4-.3.41-.2,0-.36-.11-.36-.25,0-.08.05-.17.12-.25.11-.11.26-.18.4-.18h.01c.06,0,.09,0,.11,0,0,.03.02.1.01.27h0Zm15.15,12.99c-.37,0-.69-.13-.98-.35.51-.03,1.03-.02,1.58.12-.15.14-.35.24-.6.24Zm-2.43,2.88s.1-.03.17-.05l.5-.14-.42-.31c-.07-.05-.12-.09-.17-.13-.11-.09-.21-.17-.34-.23-.16-.06-.19-.12-.15-.32.08-.32.15-.65.22-.97.08-.39.17-.78.26-1.17,0,0,0,0,0-.01l.08.11c.06.09.12.17.18.26.14.21.28.43.47.61.53.5,1.08.74,1.65.72.57-.02,1.11-.31,1.61-.85l.15-.16c.12-.14.24-.27.37-.4v.03c.05.23.1.46.08.66-.01.04-.11.13-.18.19h-.03c-.07,0-.18.02-.27.09-.1.08-.18.18-.25.27-.02.03-.05.06-.07.09l-.25.29.37.12s.07.02.11.04c.1.03.21.08.33.09.09.01.18,0,.24-.01.02,0,.06-.01.07-.01s.02,0,.02,0h0c-.08.09-.16.15-.27.24-.06.05-.12.1-.19.16l-.36.29.44.15c.08.03.15.05.21.06.1.03.17.05.24.08l.08.04s.08.04.12.05c0,.11-.03.22-.07.26-.19.18-.48.45-.09.91.06.07.04.11.04.12-.02.05-.11.11-.24.12-.95.07-1.8.13-2.61.17h-.17c-.76.05-1.54.09-2.31.1-.27,0-.35-.04-.37-.06-.03-.03-.06-.12-.06-.39,0-.18.02-.36.06-.54.04-.19.08-.4.11-.43.03-.03.24-.05.45-.06.09,0,.16-.03.26-.06h0Zm11.12,12.97c.34-1.23,1.06-2.18,2.19-2.9.03-.02.12-.02.19-.02.01.1.02.19.01.26-.01.09-.1.22-.16.31-.55.82-1.28,1.59-2.23,2.35Zm10.63-36.4c-.03-.12-.1-.29-.32-.42-.48-.29-.78.12-.91.3l-.21.29c-.27.37-.55.76-.8,1.15-.56.87-1.1,1.76-1.62,2.64-.1.17-.14.36-.17.52,0,.02-.01.04-.01.06-.11-.32-.23-.63-.36-.92-1.64-3.59-4.37-6.39-8.11-8.32-.04-.02-.08-.05-.13-.08l1.87-1.28-.18-.22c-.31-.38-.76-.47-1.2-.23-.36.2-.72.42-1.06.63-.19.12-.37.23-.56.35-.03.02-.07.04-.1.06-.05.03-.13.08-.17.1-.28-.08-.57-.19-.9-.31-.01,0-.02,0-.03-.01.05-.03.09-.07.13-.1.33-.26.62-.49.93-.68.32-.2.66-.36,1.02-.53.16-.08.32-.15.48-.23l.23-.11-.11-.23c-.29-.58-.83-.41-1-.35-1.48.48-2.65,1.34-3.51,2.56-.08.11-.19.27-.18.45,0,.15.05.29.09.42.01.05.03.09.04.14l.07.27.27-.1s.08-.02.11-.03c.12-.03.27-.07.39-.18.27-.26.58-.27,1.07-.19.26.04.35.13.35.37,0,.14.04.26.08.41.02.07.04.14.06.23l.09.38.32-.23c.07-.05.14-.1.19-.14.12-.09.22-.16.32-.25.07-.06.09-.09.24-.01,1.9.91,3.61,2.21,5.09,3.89.76.86,1.37,1.89,1.96,2.89l.25.43c1.1,1.84,1.51,3.4,1.34,5.08-.06.57-.12,1.12-.22,1.65.01-.07.02-.14.03-.22l.08-.55-.03-.28c-.02-.25-.05-.53-.1-.8-.05-.23-.32-.38-.5-.4-.26-.03-.45.27-.48.45-.03.22-.03.43-.02.64v.3c.02.62.03,1.21-.27,1.76-.1.18-.03.39.03.57.02.05.04.11.05.16l.08.38.33-.22s.09-.06.14-.09c.1-.07.21-.14.31-.22-.11.3-.24.6-.4.89-.8,1.47-1.8,3.11-3.6,3.99-.12.06-.23.13-.33.21-.09.06-.17.12-.25.16-.26.13-.51.26-.76.39-.7.37-1.43.74-2.18,1.04-.48.19-1.04.27-1.59.33l-.29.04c-.25.03-.5.07-.75.11-.85.12-1.73.25-2.59.24-.78,0-1.59-.12-2.36-.24-.38-.05-.77-.11-1.15-.16-1.75-.2-3.38-.67-4.84-1.4-2.06-1.03-3.81-2.65-5.36-4.97-1.57-2.34-2.05-4.76-1.43-7.2,1.27-5.03,4.46-8.34,9.46-9.84.02,0,.03-.01.05-.01,0,.02,0,.03-.01.05-.04.24-.08.47-.12.72l-.11.68.32-.02c.46-.02.69-.24.83-.49.04.16.11.31.23.41.17.13.33.13.43.11.2-.04.37-.19.52-.47.21-.39.41-.78.55-1.07.15-.31.38-.48.68-.51.37-.04.71-.04,1.01-.01.05,0,.09.01.12.01-.02.03-.04.07-.07.11l-.13.22c-.2.31-.4.64-.57.98-.11.23-.02.68.22.8.23.12.56.06.76-.02.18-.08.26-.26.33-.41l.03-.07c.73-1.53,1.96-2.7,3.86-3.67.04-.02.08-.04.13-.06.2-.09.67-.28.49-.78-.08-.22-.22-.3-.33-.34-.21-.07-.45-.02-.76.15-.17.1-.35.2-.53.3-.67.38-1.37.77-1.95,1.28-.5.44-.99.38-1.54.31-.02,0-.04,0-.06,0,.67-.33,1.35-.66,2.02-.99.52-.26.77-.4.68-.65-.17-.47-.61-.42-.85-.4-.04,0-.08.01-.11.01-.06,0-.1.02-.17.04-.81.19-1.54.52-2.2.99.09-.13.12-.28.15-.41.01-.05.02-.1.03-.15l.09-.31-.33-.02s-.1-.01-.15-.02c-.17-.03-.37-.06-.54.05-.49.35-1,.7-1.43,1.14-.1.1-.2.21-.3.32-.5.54-.93,1.01-1.67,1.05-.1,0-.18.04-.24.07-.01,0-.03.01-.05.02l-.72.27c-.61.23-1.23.46-1.84.7-.34.13-.61.28-.82.44-.78.61-1.57,1.24-2.33,1.86l-.31.25c-1.37,1.11-2.38,2.51-3,4.18-.48,1.28-.97,2.61-1.02,4.05,0,.09-.02.13-.03.14,0,0-.04.02-.11.01-.11-.01-.23,0-.37,0-.76.02-1.5.62-1.61,1.3-.15.9.35,1.71,1.18,1.91.28.07.65.02.95-.13.05-.02.1-.05.15-.07.02.05.05.12.06.16.09.25.17.51.25.76.2.64.41,1.31.75,1.9.69,1.21,1.54,2.6,2.74,3.77,2.21,2.15,4.65,3.47,7.45,4.03.15.03.17.07.18.07,0,.01.01.05,0,.12-.09.38-.18.76-.27,1.13l-.41,1.75c-.15.65-.3,1.29-.45,1.94-.01.06-.02.12-.03.18-.1-.07-.2-.13-.33-.13-.49,0-.94.06-1.34.18-.85.25-1.08.66-.83,1.52.07.23.14.46.2.68-.3-.14-.6-.16-1.08-.08-.26.04-.53.1-.79.15-.48.1-.93.19-1.39.22-1.28.09-2.45.27-3.57.56-.19.05-.59.15-.69.09-.1-.06-.16-.46-.19-.64-.2-1.32-.91-2.34-2.2-3.24-.46-.32-1.03-.36-1.53-.1-.46.24-.74.67-.74,1.14,0,.38.05.92.28,1.37.52,1.04,1.37,1.88,2.67,2.65.33.19.69.29,1.1.29.23,0,.47-.03.73-.09l.33-.08c.63-.15,1.28-.3,1.92-.44.9-.18,1.8-.36,2.7-.54.58-.11,1.15-.23,1.73-.34.22-.04.43-.1.66-.15l.27-.06c.05.17.1.34.15.51.04.13.07.26.1.39.07.25.13.51.23.77.3.8.7,1.02,1.58.86.59-.11,1.17-.21,1.76-.31.64-.11,1.28-.23,1.92-.34.17-.03.22,0,.28.15.16.37.35.77.61,1.24.27.51.66.77,1.11.77.15,0,.3-.03.45-.09.74-.28,1.48-.58,2.19-.89v.16s-.01.09-.02.14c-.02.14-.04.31.03.47.13.29.28.57.44.84l.13.23c.28.5.56,1,.83,1.5.59,1.07,1.21,2.17,1.79,3.26.24.44.45.74.78.83.07.02.14.03.22.03.26,0,.55-.12.87-.31.1-.06.22-.12.32-.22.21-.19.42-.38.64-.56.59-.52,1.2-1.06,1.78-1.62.53-.51.85-1.15.96-1.9.05-.36.16-1.09-.5-1.54-.54-.37-1.15-.35-1.82.05-1.17.69-1.99,1.51-2.51,2.51-.06.11-.13.22-.22.33-.11-.18-.22-.36-.33-.53-.4-.65-.78-1.26-1.18-1.87-.34-.52-.75-1.06-1.24-1.65-.13-.15-.33-.18-.5-.21-.05,0-.1-.01-.15-.03l-.09-.02c.4-.17.79-.34,1.18-.51.18-.08.26-.27.32-.43.02-.05.03-.1.06-.13l.1-.19s.07.02.1.03c.05.01.1.03.15.04l.31.12.05-.32s.02-.1.03-.15c.05-.17.1-.37,0-.55-.18-.3-.4-.58-.61-.85-.07-.09-.14-.17-.2-.26-.11-.15-.23-.29-.34-.44-.24-.3-.48-.6-.69-.92-.11-.16-.41-.59-.97-.48-.18.04-.36.08-.53.12.28-.13.51-.33.64-.62.19-.42.42-.9.39-1.37-.06-.92-.22-1.84-.38-2.73l-.05-.26c-.05-.26-.11-.61-.05-.7.07-.09.44-.15.61-.17,3.06-.47,5.7-1.64,7.85-3.46.89-.76,1.65-1.56,2.26-2.39.93-1.27,1.49-2.73,1.68-4.35l.27.08c.19.06.39.12.59.17.03,0,.06.01.09.01.14,0,.27-.07.36-.13l.1-.07c.36-.25.82-.55.82-1.16,0-.62-.32-1.14-.91-1.5-.42-.26-.9-.25-1.3.02-.08-.79-.22-1.54-.42-2.23l.24.12.12-.07c.45-.26.73-.66,1-1.05l.04-.06c.51-.74,1.03-1.49,1.56-2.22.1-.14.21-.29.31-.43.17-.24.35-.47.51-.72.12-.18.17-.38.12-.56h-.02Z"></path><path class="cls-1" d="m70.67,34.16c.03-.19.07-.38.11-.57.03-.15,0-.29-.04-.42-.01-.04-.02-.08-.03-.12l-.03-.19-.68-.06-.03.24c-.35,2.4-1.36,4.63-2.33,6.79l-.35.77.54-.15c.52-.15.75-.54.93-.94l.22-.48c.44-1,.9-2.04,1.28-3.09.2-.57.32-1.18.42-1.77Z"></path><path class="cls-1" d="m26.04,23.48c-.09-.09-.2-.13-.31-.16-.04-.01-.08-.03-.12-.05l-.16-.07-.12.12s-.04.03-.07.05c-.1.08-.24.18-.25.36-.02.35.04.58.18.73.44.45.95.93,1.6,1.49.13.11.27.17.41.17.06,0,.11-.01.17-.03.19-.07.31-.25.34-.49.02-.18-.02-.44-.17-.59-.52-.56-1.04-1.08-1.48-1.52h0Z"></path><path class="cls-1" d="m66.51,26.79s.07-.05.11-.08c.11-.08.25-.17.33-.31.27-.51.55-1.07.85-1.71.1-.21.17-.46.2-.71.02-.18-.14-.3-.26-.37-.07-.04-.25-.15-.42-.04-.06.04-.12.07-.18.11-.25.15-.53.32-.66.59-.19.42-.32.86-.45,1.32-.05.19-.11.38-.17.57l-.03.11.45.73.23-.19h0Z"></path><path class="cls-1" d="m28.42,24.4s.02-.03.03-.04l.06-.07v-.1s-.01-.1-.03-.16c.09.16.26.25.42.32.06.03.11.05.16.09l.23.15.4-.7v-.08c-.07-.62-.2-1.26-.76-1.72-.14-.11-.36-.16-.53-.13-.22.04-.36.34-.32.54l.04.19c.07.35.15.7.25,1.05-.31-.66-1.06-1.62-1.41-1.73-.24-.07-.48-.02-.61.12-.05.06-.16.23-.04.47.32.69.71,1.35,1.05,1.91.09.16.31.21.49.21.09,0,.17-.01.23-.03.17-.06.27-.2.33-.3h0Z"></path><path class="cls-1" d="m34.1,46.18l.53.21-.19-.53c-.02-.06-.04-.11-.06-.16-.03-.1-.06-.16-.09-.23l-.2-.37c-.45-.82-.91-1.64-1.38-2.45-.08-.14-.2-.22-.31-.3-.04-.03-.07-.05-.11-.08l-.36-.3-.07.46s-.02.09-.03.13c-.04.15-.09.33,0,.5.32.69.68,1.43,1.08,2.14.26.45.65.77,1.19.98h.01Z"></path><path class="cls-1" d="m47.74,30.03c.04.17.13.3.22.42.03.04.06.08.09.13l.19.31.23-.29s.06-.07.1-.1c.1-.1.23-.23.27-.4.12-.55.22-1.11.31-1.65l.02-.15c.04-.25-.03-.46-.19-.59-.15-.12-.36-.14-.58-.06-.23.09-.5.31-.58.58-.08.25-.09.51-.11.76,0,.1-.01.19-.02.29l-.03.26h.06c0,.16-.01.33.02.5h0Z"></path><path class="cls-1" d="m51.51,28.61c-.01-.15-.02-.31-.06-.47-.06-.25-.19-.34-.29-.38-.11-.04-.28-.05-.5.11-.42.31-.53,1.03-.56,1.24-.03.25-.07.86.23,1.21.11.13.33.25.52.25.03,0,.07,0,.1-.01.24-.06.37-.35.4-.52.05-.29.08-.58.11-.86v-.12s.09,0,.09,0l-.03-.26c0-.06-.01-.12-.01-.19h0Z"></path><path class="cls-1" d="m35.26,34.03c-.02-.06-.04-.14-.06-.23l-.11-.47-.33.36c-.05.06-.09.1-.12.13-.07.06-.12.12-.15.21-.27.95-.28,1.8-.03,2.61.06.18.19.29.32.39.04.03.08.06.11.1l.3.3.13-.4s.03-.09.06-.14c.06-.13.12-.28.11-.46-.03-.65-.09-1.3-.15-1.93v-.1c-.02-.12-.05-.24-.09-.37h0Z"></path><path class="cls-1" d="m67.21,26.57c-.07.17-.01.35.03.49.01.04.03.09.03.13l.06.31.3-.12s.09-.03.13-.04c.14-.04.31-.09.42-.22-.03.17.02.32.14.43.09.08.22.12.34.12.09,0,.17-.02.25-.06.24-.12.43-.31.6-.49l.07-.06c.17-.17.31-.36.45-.55.1-.14.25-.33.17-.54-.06-.15-.19-.24-.29-.3-.02-.01-.04-.02-.06-.04l-.1-.08-.12.03s-.08.01-.11.02c-.07.01-.15.02-.22.06-.1.05-.2.11-.3.18l.11-.18c.03-.05.05-.11.07-.16l.06-.15-.03-.09c-.07-.22-.2-.31-.3-.35-.2-.08-.41.01-.54.09-.68.39-.99,1.04-1.18,1.56h0Z"></path><path class="cls-1" d="m36.85,39.45c-.09-.11-.27-.18-.39-.19s-.19.03-.24.07c-.1.09-.16.19-.2.29-.01.03-.03.06-.05.09l-.07.11.06.12c.02.05.05.11.07.16.05.13.1.25.19.37.29.38.55.69.81.97.11.12.25.17.37.22.04.02.08.03.12.05l.36.18v-.4s.02-.1.03-.15c.02-.16.05-.36-.06-.53-.28-.43-.61-.84-.92-1.23l-.09-.11Z"></path><path class="cls-1" d="m70.45,37.73l-.37.63c-.26.45-.54.92-.79,1.38-.08.15-.03.3,0,.42.01.03.02.06.02.09l.06.36.32-.18s.06-.03.09-.04c.12-.05.26-.11.34-.26.27-.52.52-1.04.75-1.53.05-.12.07-.23.08-.33,0-.03,0-.07.01-.11l.03-.2-.56-.23Z"></path><path class="cls-1" d="m31,44.33h-.07l-.29-.03v.28s0,.05,0,.09c-.01.11-.03.27.06.4.17.24.36.48.64.78.19.21.36.36.53.46.07.04.14.06.21.06.07,0,.15-.02.21-.03.04,0,.08-.02.12-.02l.39-.04-.24-.43c-.03-.05-.05-.09-.08-.13l-.19-.23c-.28-.34-.58-.69-.88-1.03-.11-.13-.28-.12-.39-.12h0Z"></path></svg>