<svg xmlns="http://www.w3.org/2000/svg" xmlns:xlink="http://www.w3.org/1999/xlink" id="Layer_1" x="0px" y="0px" viewBox="0 0 90.9 96.4" style="enable-background:new 0 0 90.9 96.4;" xml:space="preserve"><style type="text/css">	.st0{fill:#FF7300;}	.st1{fill:#FFFFFF;}	.st2{font-family:'Montserrat-Medium';}	.st3{font-size:11.2163px;}</style><path class="st0" d="M17,0h56.9c9.4,0,17,7.6,17,17v62.3c0,9.4-7.6,17-17,17H17c-9.4,0-17-7.6-17-17V17C0,7.6,7.6,0,17,0z"></path><g>	<path class="st1" d="M31.3,49.1c0-3.9,0-7.8,0-11.5c-1.7-0.4-3.2-0.7-4.8-1.2c-1.2-0.3-2.3-0.8-3.4-1.3c-0.5-0.2-0.7-1.1-0.6-1.8  c0.1-0.8,0.2-1.6,0.3-2.4c0.2-1.2,0.3-2.3,0.5-3.5c0.1-0.9,0.3-1.9,0.5-2.8c0.2-1.2,0.5-2.3,0.8-3.5c0.3-1.1,0.8-2.1,1.2-3.2  c0.6-1.4,1.7-2.3,2.9-3c2.2-1.2,4.4-2.1,6.8-2.7c1-0.3,1.9-0.6,2.9-0.8c0.5-0.1,1.1,0,1.6,0.1c1,0.1,2,0.3,3,0.5  c1.2,0.2,2.3,0.4,3.5,0.4c1.2,0,2.4-0.3,3.7-0.4c1.3-0.2,2.5-0.5,3.8-0.5c1,0,2,0.3,2.9,0.6c1.6,0.5,3.1,1.1,4.7,1.7  c1.5,0.6,2.9,1.3,4.1,2.4c0.6,0.5,1.1,1.3,1.4,2c0.5,1.3,1,2.6,1.4,3.9c0.4,1.4,0.6,2.8,0.9,4.2c0.2,0.9,0.3,1.8,0.5,2.7  c0.1,0.6,0.2,1.1,0.2,1.7c0.1,1.1,0.2,2.3,0.3,3.4c0,0.6-0.2,1-0.7,1.2c-0.9,0.4-1.8,0.8-2.8,1.1c-1.6,0.5-3.1,1-4.8,1.1  c-0.1,0-0.3,0.1-0.4,0.1c0,0.8,0,1.6,0,2.4c0,2.7,0,5.4,0,8.2c0,3.8-0.1,7.6-0.1,11.4c0,0.4,0,0.9-0.1,1.3  c-0.1,0.2-0.4,0.5-0.6,0.6c-1.1,0.4-2.1,0.8-3.2,1.1c-1.6,0.4-3.2,0.6-4.8,0.8c-1.2,0.2-2.5,0.2-3.7,0.3c-1.7,0.1-3.4,0.1-5.1,0.1  c-1.4,0-2.8-0.2-4.3-0.4c-1.1-0.1-2.3-0.2-3.4-0.5c-1.5-0.4-2.9-0.8-4.3-1.3c-0.5-0.2-0.7-0.5-0.7-1c0-2.4-0.1-4.8-0.1-7.2  c0-0.1,0.1-0.2,0.1-0.4c0-1.1,0-2.2,0-3.4C31.4,49.3,31.3,49.2,31.3,49.1z M61.5,35.2c0.6-0.1,1.2-0.1,1.8-0.2  c1.4-0.4,2.9-0.8,4.3-1.3c0.2-0.1,0.5-0.1,0.4-0.4c-0.1-1-0.1-1.9-0.2-2.9c-0.2-1.4-0.5-2.7-0.7-4.1c-0.3-2-0.8-3.9-1.4-5.8  c-0.6-1.9-1.7-3.2-3.5-4c-2.4-1.1-4.9-1.9-7.4-2.7c-0.5,0.9-1.1,1.7-2,2.2c-2.5,1.7-5.2,2-8.1,1.8c-1.5-0.2-2.8-0.6-4.1-1.3  c-1-0.5-1.8-1.2-2.4-2.2c-0.2-0.4-0.5-0.5-0.9-0.4c-0.6,0.2-1.1,0.4-1.6,0.5c-2,0.6-3.8,1.3-5.6,2.2c-0.8,0.4-1.6,0.9-2.1,1.7  c-1.1,1.7-1.5,3.7-1.9,5.6c-0.4,1.8-0.6,3.6-0.9,5.4C25,30.5,25,31.7,24.8,33c-0.1,0.5,0.2,0.6,0.6,0.7c1.2,0.3,2.3,0.8,3.5,1.1  c0.8,0.2,1.6,0.3,2.5,0.5c-0.1-2.4-0.1-4.6-0.3-6.8c-0.1-1.4-0.5-2.6-1.2-3.8c-0.2-0.4-0.5-0.7-0.7-1.1c-0.2-0.4-0.1-0.8,0.2-1.1  c0.5-0.4,1-0.4,1.6,0.1c1,1,1.5,2.3,2,3.7c0.4,1.2,0.3,2.5,0.3,3.7c0.1,2.3,0.1,4.5,0.1,6.8c0,7.4,0,14.8,0.1,22.2  c0,0.2,0,0.4,0,0.6c0.6,0.2,1.1,0.4,1.7,0.6c1.4,0.3,2.9,0.6,4.3,0.8c1.8,0.2,3.5,0.3,5.3,0.4c1.5,0,3,0,4.5-0.1  c1.6-0.1,3.3-0.2,4.9-0.4c1.7-0.2,3.3-0.6,4.9-1.1c0.4-0.1,0.4-0.3,0.4-0.6c0-4.2,0-8.4,0-12.6c0-1.6,0.1-3.1,0.1-4.7  c0-4.5,0.1-9,0.1-13.4c0-1,0.2-1.9,0.5-2.8c0.4-1.1,0.9-2.2,1.8-3.1c0.4-0.4,1-0.4,1.5,0c0.5,0.5,0.4,1-0.1,1.7  c-1.2,1.4-1.6,3.1-1.7,4.9c-0.1,1.5,0,3,0,4.5C61.6,34.2,61.6,34.7,61.5,35.2z M51.9,13.9c-3.6,0.8-7.3,0.8-10.9,0  C43.8,16.1,48.6,16.3,51.9,13.9z"></path>	<path class="st1" d="M31.3,49.1c0,0.1,0.1,0.2,0.1,0.4c0,1.1,0,2.2,0,3.4c0,0.1-0.1,0.2-0.1,0.4c0,0,0,0,0,0  C31.2,51.8,31.2,50.4,31.3,49.1C31.2,49.1,31.2,49.1,31.3,49.1z"></path></g><text transform="matrix(1 0 0 1 23.7288 79.7402)" class="st1 st2 st3">T-Shirts</text></svg>